<?xml version="1.0" encoding="UTF-8"?>
<svg width="144px" height="144px" viewBox="0 0 144 144" version="1.1" xmlns="http://www.w3.org/2000/svg" xmlns:xlink="http://www.w3.org/1999/xlink">
    <!-- Generator: Sketch 48.2 (47327) - http://www.bohemiancoding.com/sketch -->
    <title>download (2) copy</title>
    <desc>Created with Sketch.</desc>
    <defs>
        <circle id="path-1" cx="72" cy="72" r="72"></circle>
    </defs>
    <g id="Page-1" stroke="none" stroke-width="1" fill="none" fill-rule="evenodd">
        <g id="download-(2)-copy">
            <mask id="mask-2" fill="white">
                <use xlink:href="#path-1"></use>
            </mask>
            <use id="Mask" fill="#D8D8D8" xlink:href="#path-1"></use>
            <path d="M87.3078351,106.992193 L87.3078351,110.508882 C87.4920418,113.494129 89.7755481,116.04638 94.158354,118.165635 C98.5411598,120.28489 108.623411,125.007601 124.405109,132.333768 C134.893492,138.029705 140.137684,144.802375 140.137684,152.651777 C140.137684,160.501179 140.137803,169.493102 140.138042,179.627546 L77.0718052,179.627546 L5,179.627546 C5.00023824,169.493102 5.00035736,160.501179 5.00035736,152.651777 C5.00035736,144.802375 10.2445492,138.029705 20.7329329,132.333768 C36.5146302,125.007601 46.5968818,120.28489 50.9796876,118.165635 C55.3624934,116.04638 57.6459997,113.494129 57.8302065,110.508882 L57.8302065,106.09338 C50.7597205,100.864592 45.4202749,92.1419601 43.2049541,81.7346859 C39.6387026,81.6261792 36.1954358,77.8646335 35.1941454,72.7134409 C34.1641156,67.4143974 36.0809683,62.5107903 39.5270715,61.2328172 C39.0819801,59.0130786 38.8483349,56.7156562 38.8483349,54.3630134 C38.8483349,35.3848452 54.0521819,20 72.8070776,20 C91.5619733,20 106.76582,35.3848452 106.76582,54.3630134 C106.76582,56.7551165 106.524272,59.0901312 106.064509,61.3444449 C109.335855,62.7764214 111.123272,67.5577671 110.121111,72.7134409 C109.22726,77.3119073 106.387368,80.8029471 103.251172,81.5763766 C100.926106,92.6758744 95.0510951,101.875819 87.3078351,106.992193 Z" id="Combined-Shape" fill="#FFFFFF" mask="url(#mask-2)"></path>
        </g>
    </g>
</svg>